sporting_grotesque_normal.ufo
<glyph name="exclam" format="1">
  <advance width="290"/>
  <unicode hex="0021"/>
  <outline>
    <contour>
      <point x="80" y="777" type="line"/>
      <point x="90" y="240" type="line"/>
      <point x="200" y="240" type="line"/>
      <point x="210" y="777" type="line"/>
    </contour>
    <contour>
      <point x="80" y="0" type="line"/>
      <point x="210" y="0" type="line"/>
      <point x="210" y="145" type="line"/>
      <point x="80" y="145" type="line"/>
    </contour>
  </outline>
</glyph>
<glyph name="numbersign" format="1">
  <advance width="650"/>
  <unicode hex="0023"/>
  <outline>
    <contour>
      <point x="253" y="715" type="line"/>
      <point x="97" y="0" type="line"/>
      <point x="152" y="0" type="line"/>
      <point x="309" y="715" type="line"/>
    </contour>
    <contour>
      <point x="486" y="715" type="line"/>
      <point x="330" y="0" type="line"/>
      <point x="384" y="0" type="line"/>
      <point x="542" y="715" type="line"/>
    </contour>
    <contour>
      <point x="557" y="283" type="line"/>
      <point x="40" y="283" type="line"/>
      <point x="40" y="233" type="line"/>
      <point x="557" y="233" type="line"/>
    </contour>
    <contour>
      <point x="610" y="483" type="line"/>
      <point x="91" y="483" type="line"/>
      <point x="91" y="433" type="line"/>
      <point x="610" y="433" type="line"/>
    </contour>
  </outline>
</glyph>
<glyph name="dollar" format="1">
  <advance width="800"/>
  <unicode hex="0024"/>
  <outline>
    <contour>
      <point x="341" y="476" type="line" smooth="yes"/>
      <point x="255" y="495"/>
      <point x="204" y="521"/>
      <point x="204" y="580" type="curve"/>
      <point x="204" y="646"/>
      <point x="271" y="692"/>
      <point x="376" y="692" type="curve"/>
      <point x="610" y="692"/>
      <point x="596" y="523"/>
      <point x="596" y="523" type="curve"/>
      <point x="730" y="559" type="line"/>
      <point x="730" y="559"/>
      <point x="722" y="791"/>
      <point x="382" y="791" type="curve"/>
      <point x="164" y="791"/>
      <point x="69" y="685"/>
      <point x="69" y="568" type="curve"/>
      <point x="69" y="475"/>
      <point x="134" y="401"/>
      <point x="267" y="370" type="curve" smooth="yes"/>
      <point x="456" y="326" type="line" smooth="yes"/>
      <point x="570" y="299"/>
      <point x="632" y="277"/>
      <point x="632" y="202" type="curve"/>
      <point x="632" y="138"/>
      <point x="557" y="85"/>
      <point x="431" y="85" type="curve"/>
      <point x="143" y="85"/>
      <point x="167" y="302"/>
      <point x="167" y="302" type="curve"/>
      <point x="33" y="263" type="line"/>
      <point x="38" y="158"/>
      <point x="131" y="-14"/>
      <point x="434" y="-14" type="curve"/>
      <point x="622" y="-14"/>
      <point x="767" y="62"/>
      <point x="767" y="208" type="curve"/>
      <point x="767" y="309"/>
      <point x="708" y="394"/>
      <point x="539" y="432" type="curve" smooth="yes"/>
    </contour>
    <contour>
      <point x="421" y="-223" type="line"/>
      <point x="421" y="1012" type="line"/>
      <point x="378" y="1012" type="line"/>
      <point x="378" y="-223" type="line"/>
    </contour>
  </outline>
</glyph>
<glyph name="ampersand" format="1">
  <advance width="843"/>
  <unicode hex="0026"/>
  <outline>
    <contour>
      <point x="60" y="682" type="line"/>
      <point x="158" y="692" type="line"/>
      <point x="598" y="692" type="line"/>
      <point x="20" y="95" type="line"/>
      <point x="20" y="0" type="line"/>
      <point x="843" y="0" type="line"/>
      <point x="843" y="85" type="line"/>
      <point x="155" y="85" type="line"/>
      <point x="733" y="682" type="line"/>
      <point x="733" y="777" type="line"/>
      <point x="60" y="777" type="line"/>
    </contour>
    <contour>
      <point x="60" y="682" type="line"/>
      <point x="507" y="288"/>
      <point x="702" y="-238"/>
      <point x="702" y="-238" type="curve"/>
      <point x="834" y="-198" type="line"/>
      <point x="834" y="-198"/>
      <point x="576" y="348"/>
      <point x="169" y="692" type="curve"/>
      <point x="60" y="777" type="line"/>
    </contour>
  </outline>
</glyph>
<glyph name="quotesingle" format="1">
  <advance width="260"/>
  <unicode hex="0027"/>
  <outline>
    <contour>
      <point x="90" y="480" type="line"/>
      <point x="170" y="480" type="line"/>
      <point x="170" y="777" type="line"/>
      <point x="90" y="777" type="line"/>
    </contour>
  </outline>
</glyph>
<glyph name="hyphen" format="1">
  <advance width="502"/>
  <unicode hex="002D"/>
  <outline>
    <contour>
      <point x="462" y="260" type="line"/>
      <point x="462" y="335" type="line"/>
      <point x="40" y="335" type="line"/>
      <point x="40" y="260" type="line"/>
    </contour>
  </outline>
</glyph>
<glyph name="one" format="1">
  <advance width="800"/>
  <unicode hex="0031"/>
  <outline>
    <contour>
      <point x="540" y="0" type="line"/>
      <point x="540" y="777" type="line"/>
      <point x="410" y="777" type="line"/>
      <point x="410" y="625"/>
      <point x="309" y="579"/>
      <point x="110" y="579" type="curve"/>
      <point x="110" y="480" type="line"/>
      <point x="358" y="480"/>
      <point x="409" y="542"/>
      <point x="409" y="692" type="curve"/>
      <point x="410" y="0" type="line"/>
    </contour>
    <contour>
      <point x="750" y="0" type="line"/>
      <point x="750" y="85" type="line"/>
      <point x="110" y="85" type="line"/>
      <point x="110" y="85"/>
      <point x="110" y="0"/>
      <point x="110" y="0" type="curve"/>
    </contour>
  </outline>
</glyph>
<glyph name="four" format="1">
  <advance width="800"/>
  <unicode hex="0034"/>
  <outline>
    <contour>
      <point x="40" y="188" type="line"/>
      <point x="504" y="188" type="line"/>
      <point x="504" y="0" type="line"/>
      <point x="634" y="0" type="line"/>
      <point x="634" y="188" type="line"/>
      <point x="790" y="188" type="line"/>
      <point x="790" y="273" type="line"/>
      <point x="634" y="273" type="line"/>
      <point x="634" y="777" type="line"/>
      <point x="462" y="777" type="line"/>
      <point x="40" y="313" type="line"/>
    </contour>
    <contour>
      <point x="504" y="682" type="line"/>
      <point x="504" y="273" type="line"/>
      <point x="141" y="273" type="line"/>
    </contour>
  </outline>
</glyph>
<glyph name="nine" format="1">
  <advance width="800"/>
  <unicode hex="0039"/>
  <outline>
    <contour>
      <point x="608" y="515" type="curve"/>
      <point x="615" y="400"/>
      <point x="537" y="277"/>
      <point x="332" y="277" type="curve" smooth="yes"/>
      <point x="197" y="277"/>
      <point x="60" y="354"/>
      <point x="60" y="534" type="curve" smooth="yes"/>
      <point x="60" y="684"/>
      <point x="197" y="791"/>
      <point x="384" y="791" type="curve" smooth="yes"/>
      <point x="611" y="791"/>
      <point x="740" y="622"/>
      <point x="740" y="388" type="curve" smooth="yes"/>
      <point x="740" y="155"/>
      <point x="607" y="-14"/>
      <point x="380" y="-14" type="curve"/>
      <point x="118" y="-14"/>
      <point x="70" y="208"/>
      <point x="70" y="208" type="curve"/>
      <point x="203" y="248" type="line"/>
      <point x="203" y="248"/>
      <point x="218" y="85"/>
      <point x="380" y="85" type="curve"/>
      <point x="529" y="85"/>
      <point x="603" y="217"/>
      <point x="603" y="388" type="curve" smooth="yes"/>
      <point x="603" y="560"/>
      <point x="533" y="692"/>
      <point x="384" y="692" type="curve" smooth="yes"/>
      <point x="255" y="692"/>
      <point x="197" y="624"/>
      <point x="197" y="534" type="curve" smooth="yes"/>
      <point x="197" y="444"/>
      <point x="255" y="376"/>
      <point x="384" y="376" type="curve" smooth="yes"/>
      <point x="517" y="376"/>
      <point x="595" y="478"/>
      <point x="590" y="581" type="curve"/>
      <point x="590" y="581"/>
      <point x="608" y="515"/>
    </contour>
  </outline>
</glyph>
<glyph name="colon" format="1">
  <advance width="310"/>
  <unicode hex="003A"/>
  <outline>
    <contour>
      <point x="90" y="0" type="line"/>
      <point x="220" y="0" type="line"/>
      <point x="220" y="145" type="line"/>
      <point x="90" y="145" type="line"/>
    </contour>
    <contour>
      <point x="90" y="410" type="line"/>
      <point x="220" y="410" type="line"/>
      <point x="220" y="555" type="line"/>
      <point x="90" y="555" type="line"/>
    </contour>
  </outline>
</glyph>
<glyph name="A" format="1">
  <advance width="974"/>
  <unicode hex="0041"/>
  <outline>
    <contour>
      <point x="487" y="835" type="move" name="top"/>
    </contour>
    <contour>
      <point x="470" y="692" type="line"/>
      <point x="505" y="692" type="line"/>
      <point x="815" y="0" type="line"/>
      <point x="954" y="0" type="line"/>
      <point x="594" y="777" type="line"/>
      <point x="380" y="777" type="line"/>
      <point x="20" y="0" type="line"/>
      <point x="158" y="0" type="line"/>
    </contour>
    <contour>
      <point x="250" y="332" type="line"/>
      <point x="250" y="247" type="line"/>
      <point x="718" y="247" type="line"/>
      <point x="718" y="332" type="line"/>
    </contour>
  </outline>
</glyph>
<glyph name="B" format="1">
  <advance width="849"/>
  <unicode hex="0042"/>
  <outline>
    <contour>
      <point x="789" y="221" type="curve"/>
      <point x="789" y="74"/>
      <point x="680" y="0"/>
      <point x="440" y="0" type="curve" smooth="yes"/>
      <point x="90" y="0" type="line"/>
      <point x="90" y="777" type="line"/>
      <point x="420" y="777" type="line" smooth="yes"/>
      <point x="660" y="777"/>
      <point x="769" y="710"/>
      <point x="769" y="587" type="curve"/>
      <point x="769" y="436"/>
      <point x="602" y="418"/>
      <point x="602" y="418" type="curve"/>
      <point x="602" y="418"/>
      <point x="789" y="408"/>
    </contour>
    <contour>
      <point x="220" y="356" type="line"/>
      <point x="220" y="85" type="line"/>
      <point x="440" y="85" type="line" smooth="yes"/>
      <point x="560" y="85"/>
      <point x="652" y="111"/>
      <point x="652" y="221" type="curve" smooth="yes"/>
      <point x="652" y="331"/>
      <point x="560" y="356"/>
      <point x="440" y="356" type="curve" smooth="yes"/>
    </contour>
    <contour>
      <point x="220" y="441" type="line"/>
      <point x="420" y="441" type="line" smooth="yes"/>
      <point x="540" y="441"/>
      <point x="632" y="467"/>
      <point x="632" y="567" type="curve" smooth="yes"/>
      <point x="632" y="667"/>
      <point x="540" y="692"/>
      <point x="420" y="692" type="curve" smooth="yes"/>
      <point x="220" y="692" type="line"/>
    </contour>
  </outline>
</glyph>
<glyph name="D" format="1">
  <advance width="923"/>
  <unicode hex="0044"/>
  <outline>
    <contour>
      <point x="440" y="777" type="line" smooth="yes"/>
      <point x="700" y="777"/>
      <point x="863" y="629"/>
      <point x="863" y="388" type="curve" smooth="yes"/>
      <point x="863" y="148"/>
      <point x="700" y="0"/>
      <point x="440" y="0" type="curve" smooth="yes"/>
      <point x="90" y="0" type="line"/>
      <point x="90" y="777" type="line"/>
    </contour>
    <contour>
      <point x="220" y="692" type="line"/>
      <point x="220" y="85" type="line"/>
      <point x="380" y="85" type="line" smooth="yes"/>
      <point x="600" y="85"/>
      <point x="726" y="188"/>
      <point x="726" y="388" type="curve" smooth="yes"/>
      <point x="726" y="588"/>
      <point x="600" y="692"/>
      <point x="380" y="692" type="curve" smooth="yes"/>
    </contour>
  </outline>
</glyph>
<glyph name="E" format="1">
  <advance width="745"/>
  <unicode hex="0045"/>
  <outline>
    <contour>
      <point x="90" y="0" type="line"/>
      <point x="705" y="0" type="line"/>
      <point x="705" y="85" type="line"/>
      <point x="220" y="85" type="line"/>
      <point x="220" y="347" type="line"/>
      <point x="648" y="347" type="line"/>
      <point x="648" y="432" type="line"/>
      <point x="220" y="432" type="line"/>
      <point x="220" y="692" type="line"/>
      <point x="676" y="692" type="line"/>
      <point x="676" y="777" type="line"/>
      <point x="90" y="777" type="line"/>
    </contour>
    <contour>
      <point x="427" y="835" type="move" name="top"/>
    </contour>
  </outline>
</glyph>
<glyph name="H" format="1">
  <advance width="930"/>
  <unicode hex="0048"/>
  <outline>
    <contour>
      <point x="710" y="0" type="line"/>
      <point x="840" y="0" type="line"/>
      <point x="840" y="777" type="line"/>
      <point x="710" y="777" type="line"/>
      <point x="710" y="432" type="line"/>
      <point x="220" y="432" type="line"/>
      <point x="220" y="777" type="line"/>
      <point x="90" y="777" type="line"/>
      <point x="90" y="0" type="line"/>
      <point x="220" y="0" type="line"/>
      <point x="220" y="347" type="line"/>
      <point x="710" y="347" type="line"/>
    </contour>
  </outline>
</glyph>
<glyph name="I" format="1">
  <advance width="310"/>
  <unicode hex="0049"/>
  <outline>
    <contour>
      <point x="165" y="835" type="move" name="top"/>
    </contour>
    <contour>
      <point x="90" y="777" type="line"/>
      <point x="90" y="0" type="line"/>
      <point x="220" y="0" type="line"/>
      <point x="220" y="777" type="line"/>
    </contour>
  </outline>
</glyph>
<glyph name="J" format="1">
  <advance width="774"/>
  <unicode hex="004A"/>
  <outline>
    <contour>
      <point x="194" y="332" type="curve"/>
      <point x="60" y="293" type="line"/>
      <point x="62" y="83"/>
      <point x="184" y="-14"/>
      <point x="372" y="-14" type="curve"/>
      <point x="562" y="-14"/>
      <point x="684" y="85"/>
      <point x="684" y="299" type="curve"/>
      <point x="684" y="777" type="line"/>
      <point x="554" y="777" type="line"/>
      <point x="554" y="299" type="line"/>
      <point x="554" y="177"/>
      <point x="497" y="85"/>
      <point x="372" y="85" type="curve"/>
      <point x="247" y="85"/>
      <point x="190" y="177"/>
      <point x="190" y="299" type="curve"/>
      <point x="190" y="317"/>
      <point x="194" y="332"/>
    </contour>
  </outline>
</glyph>
<glyph name="K" format="1">
  <advance width="862"/>
  <unicode hex="004B"/>
  <outline>
    <contour>
      <point x="220" y="777" type="line"/>
      <point x="90" y="777" type="line"/>
      <point x="90" y="0" type="line"/>
      <point x="220" y="0" type="line"/>
    </contour>
    <contour>
      <point x="90" y="290" type="line"/>
      <point x="220" y="280" type="line"/>
      <point x="782" y="777" type="line"/>
      <point x="622" y="777" type="line"/>
    </contour>
    <contour>
      <point x="692" y="0" type="line"/>
      <point x="842" y="0" type="line"/>
      <point x="423" y="477" type="line"/>
      <point x="338" y="403" type="line"/>
    </contour>
  </outline>
</glyph>
<glyph name="L" format="1">
  <advance width="665"/>
  <unicode hex="004C"/>
  <outline>
    <contour>
      <point x="90" y="0" type="line"/>
      <point x="665" y="0" type="line"/>
      <point x="665" y="85" type="line"/>
      <point x="220" y="85" type="line"/>
      <point x="220" y="777" type="line"/>
      <point x="90" y="777" type="line"/>
    </contour>
  </outline>
</glyph>
<glyph name="M" format="1">
  <advance width="1222"/>
  <unicode hex="004D"/>
  <outline>
    <contour>
      <point x="611" y="85" type="line"/>
      <point x="290" y="777" type="line"/>
      <point x="90" y="777" type="line"/>
      <point x="90" y="0" type="line"/>
      <point x="220" y="0" type="line"/>
      <point x="220" y="642" type="line"/>
      <point x="526" y="0" type="line"/>
      <point x="696" y="0" type="line"/>
      <point x="1002" y="642" type="line"/>
      <point x="1002" y="0" type="line"/>
      <point x="1132" y="0" type="line"/>
      <point x="1132" y="777" type="line"/>
      <point x="932" y="777" type="line"/>
    </contour>
  </outline>
</glyph>
<glyph name="N" format="1">
  <advance width="931"/>
  <unicode hex="004E"/>
  <outline>
    <contour>
      <point x="841" y="777" type="line"/>
      <point x="711" y="777" type="line"/>
      <point x="711" y="135" type="line"/>
      <point x="250" y="777" type="line"/>
      <point x="90" y="777" type="line"/>
      <point x="90" y="0" type="line"/>
      <point x="220" y="0" type="line"/>
      <point x="220" y="642" type="line"/>
      <point x="681" y="0" type="line"/>
      <point x="841" y="0" type="line"/>
    </contour>
  </outline>
</glyph>
<glyph name="P" format="1">
  <advance width="789"/>
  <unicode hex="0050"/>
  <outline>
    <contour>
      <point x="220" y="692" type="line"/>
      <point x="220" y="441" type="line"/>
    </contour>
    <contour>
      <point x="90" y="777" type="line"/>
      <point x="420" y="777" type="line" smooth="yes"/>
      <point x="660" y="777"/>
      <point x="769" y="710"/>
      <point x="769" y="567" type="curve" smooth="yes"/>
      <point x="769" y="424"/>
      <point x="660" y="356"/>
      <point x="420" y="356" type="curve" smooth="yes"/>
      <point x="220" y="356" type="line"/>
      <point x="220" y="0" type="line"/>
      <point x="90" y="0" type="line"/>
    </contour>
    <contour>
      <point x="220" y="441" type="line"/>
      <point x="420" y="441" type="line" smooth="yes"/>
      <point x="540" y="441"/>
      <point x="632" y="467"/>
      <point x="632" y="567" type="curve" smooth="yes"/>
      <point x="632" y="667"/>
      <point x="540" y="692"/>
      <point x="420" y="692" type="curve" smooth="yes"/>
      <point x="220" y="692" type="line"/>
    </contour>
  </outline>
</glyph>
<glyph name="T" format="1">
  <advance width="787"/>
  <unicode hex="0054"/>
  <outline>
    <contour>
      <point x="0" y="692" type="line"/>
      <point x="330" y="692" type="line"/>
      <point x="330" y="0" type="line"/>
      <point x="457" y="0" type="line"/>
      <point x="457" y="692" type="line"/>
      <point x="787" y="692" type="line"/>
      <point x="787" y="777" type="line"/>
      <point x="0" y="777" type="line"/>
    </contour>
  </outline>
</glyph>
<glyph name="V" format="1">
  <advance width="914"/>
  <unicode hex="0056"/>
  <outline>
    <contour>
      <point x="894" y="777" type="line"/>
      <point x="755" y="777" type="line"/>
      <point x="457" y="85" type="line"/>
      <point x="159" y="777" type="line"/>
      <point x="20" y="777" type="line"/>
      <point x="365" y="0" type="line"/>
      <point x="549" y="0" type="line"/>
    </contour>
  </outline>
</glyph>
<glyph name="W" format="1">
  <advance width="1329"/>
  <unicode hex="0057"/>
  <outline>
    <contour>
      <point x="1309" y="777" type="line"/>
      <point x="1170" y="777" type="line"/>
      <point x="952" y="85" type="line"/>
      <point x="744" y="777" type="line"/>
      <point x="585" y="777" type="line"/>
      <point x="377" y="85" type="line"/>
      <point x="159" y="777" type="line"/>
      <point x="20" y="777" type="line"/>
      <point x="285" y="0" type="line"/>
      <point x="469" y="0" type="line"/>
      <point x="664" y="642" type="line"/>
      <point x="860" y="0" type="line"/>
      <point x="1044" y="0" type="line"/>
    </contour>
  </outline>
</glyph>
<glyph name="X" format="1">
  <advance width="852"/>
  <unicode hex="0058"/>
  <outline>
    <contour>
      <point x="692" y="0" type="line"/>
      <point x="842" y="0" type="line"/>
      <point x="160" y="777" type="line"/>
      <point x="10" y="777" type="line"/>
    </contour>
    <contour>
      <point x="10" y="0" type="line"/>
      <point x="160" y="0" type="line"/>
      <point x="842" y="777" type="line"/>
      <point x="692" y="777" type="line"/>
    </contour>
  </outline>
</glyph>
<glyph name="bracketleft" format="1">
  <advance width="333"/>
  <unicode hex="005B"/>
  <outline>
    <contour>
      <point x="313" y="-129" type="line"/>
      <point x="60" y="-129" type="line"/>
      <point x="60" y="-179" type="line"/>
      <point x="313" y="-179" type="line"/>
    </contour>
    <contour>
      <point x="60" y="818" type="line"/>
      <point x="60" y="-179" type="line"/>
      <point x="110" y="-179" type="line"/>
      <point x="110" y="818" type="line"/>
    </contour>
    <contour>
      <point x="313" y="818" type="line"/>
      <point x="60" y="818" type="line"/>
      <point x="60" y="768" type="line"/>
      <point x="313" y="768" type="line"/>
    </contour>
  </outline>
</glyph>
<glyph name="backslash" format="1">
  <advance width="245"/>
  <unicode hex="005C"/>
  <outline>
    <contour>
      <point x="-39" y="713" type="line"/>
      <point x="235" y="-110" type="line"/>
      <point x="284" y="-95" type="line"/>
      <point x="12" y="729" type="line"/>
    </contour>
  </outline>
</glyph>
<glyph name="bracketright" format="1">
  <advance width="333"/>
  <unicode hex="005D"/>
  <outline>
    <contour>
      <point x="20" y="768" type="line"/>
      <point x="273" y="768" type="line"/>
      <point x="273" y="818" type="line"/>
      <point x="20" y="818" type="line"/>
    </contour>
    <contour>
      <point x="223" y="818" type="line"/>
      <point x="223" y="-179" type="line"/>
      <point x="273" y="-179" type="line"/>
      <point x="273" y="818" type="line"/>
    </contour>
    <contour>
      <point x="20" y="-179" type="line"/>
      <point x="273" y="-179" type="line"/>
      <point x="273" y="-129" type="line"/>
      <point x="20" y="-129" type="line"/>
    </contour>
  </outline>
</glyph>
<glyph name="a" format="1">
  <advance width="704"/>
  <unicode hex="0061"/>
  <outline>
    <contour>
      <point x="565" y="133" type="line" smooth="yes"/>
      <point x="564" y="98"/>
      <point x="577" y="75"/>
      <point x="609" y="75" type="curve"/>
      <point x="658" y="75"/>
      <point x="680" y="125"/>
      <point x="680" y="125" type="curve"/>
      <point x="704" y="36" type="line"/>
      <point x="704" y="36"/>
      <point x="667" y="-14"/>
      <point x="574" y="-14" type="curve" smooth="yes"/>
      <point x="512" y="-14"/>
      <point x="450" y="17"/>
      <point x="450" y="115" type="curve" smooth="yes"/>
      <point x="450" y="210" type="line"/>
      <point x="450" y="210"/>
      <point x="370" y="-14"/>
      <point x="204" y="-14" type="curve"/>
      <point x="122" y="-14"/>
      <point x="70" y="39"/>
      <point x="70" y="108" type="curve"/>
      <point x="70" y="201"/>
      <point x="152" y="330"/>
      <point x="450" y="364" type="curve"/>
      <point x="450" y="364"/>
      <point x="460" y="480"/>
      <point x="331" y="480" type="curve"/>
      <point x="201" y="480"/>
      <point x="174" y="368"/>
      <point x="174" y="368" type="curve"/>
      <point x="50" y="404" type="line"/>
      <point x="50" y="404"/>
      <point x="104" y="569"/>
      <point x="327" y="569" type="curve" smooth="yes"/>
      <point x="493" y="569"/>
      <point x="574" y="480"/>
      <point x="571" y="366" type="curve" smooth="yes"/>
    </contour>
    <contour>
      <point x="197" y="133" type="curve"/>
      <point x="197" y="95"/>
      <point x="217" y="75"/>
      <point x="250" y="75" type="curve"/>
      <point x="356" y="75"/>
      <point x="452" y="253"/>
      <point x="450" y="295" type="curve"/>
      <point x="450" y="330" type="line"/>
      <point x="227" y="273"/>
      <point x="197" y="182"/>
    </contour>
    <contour>
      <point x="336" y="613" type="move" name="top"/>
    </contour>
  </outline>
</glyph>
<glyph name="b" format="1">
  <advance width="747"/>
  <unicode hex="0062"/>
  <outline>
    <contour>
      <point x="371" y="75" type="curve"/>
      <point x="251" y="75"/>
      <point x="185" y="167"/>
      <point x="185" y="277" type="curve" smooth="yes"/>
      <point x="185" y="387"/>
      <point x="251" y="480"/>
      <point x="371" y="480" type="curve" smooth="yes"/>
      <point x="489" y="480"/>
      <point x="559" y="397"/>
      <point x="559" y="277" type="curve" smooth="yes"/>
      <point x="559" y="157"/>
      <point x="489" y="75"/>
    </contour>
    <contour>
      <point x="210" y="777" type="line"/>
      <point x="210" y="777"/>
      <point x="154" y="766"/>
      <point x="90" y="766" type="curve"/>
      <point x="90" y="0" type="line"/>
      <point x="158" y="0" type="line"/>
      <point x="196" y="132" type="line"/>
      <point x="196" y="132"/>
      <point x="233" y="-14"/>
      <point x="409" y="-14" type="curve"/>
      <point x="575" y="-14"/>
      <point x="687" y="107"/>
      <point x="687" y="277" type="curve" smooth="yes"/>
      <point x="687" y="447"/>
      <point x="575" y="569"/>
      <point x="409" y="569" type="curve" smooth="yes"/>
      <point x="259" y="569"/>
      <point x="210" y="452"/>
      <point x="210" y="452" type="curve"/>
    </contour>
  </outline>
</glyph>
<glyph name="g" format="1">
  <advance width="727"/>
  <unicode hex="0067"/>
  <outline>
    <contour>
      <point x="246" y="203" type="line"/>
      <point x="246" y="203"/>
      <point x="70" y="202"/>
      <point x="70" y="106" type="curve"/>
      <point x="70" y="11"/>
      <point x="224" y="7"/>
      <point x="224" y="7" type="curve"/>
      <point x="128" y="7"/>
      <point x="50" y="-35"/>
      <point x="50" y="-107" type="curve" smooth="yes"/>
      <point x="50" y="-159"/>
      <point x="88" y="-233"/>
      <point x="273" y="-233" type="curve" smooth="yes"/>
      <point x="403" y="-233" type="line" smooth="yes"/>
      <point x="611" y="-233"/>
      <point x="697" y="-173"/>
      <point x="697" y="-74" type="curve" smooth="yes"/>
      <point x="697" y="1"/>
      <point x="647" y="75"/>
      <point x="474" y="75" type="curve" smooth="yes"/>
      <point x="284" y="75" type="line" smooth="yes"/>
      <point x="227" y="75"/>
      <point x="198" y="94"/>
      <point x="198" y="130" type="curve"/>
      <point x="198" y="196"/>
      <point x="301" y="192"/>
      <point x="301" y="192" type="curve"/>
    </contour>
    <contour>
      <point x="465" y="-13" type="line" smooth="yes"/>
      <point x="542" y="-19"/>
      <point x="568" y="-45"/>
      <point x="568" y="-87" type="curve" smooth="yes"/>
      <point x="568" y="-150"/>
      <point x="510" y="-172"/>
      <point x="378" y="-172" type="curve" smooth="yes"/>
      <point x="228" y="-172"/>
      <point x="179" y="-150"/>
      <point x="179" y="-87" type="curve" smooth="yes"/>
      <point x="179" y="0"/>
      <point x="295" y="0"/>
      <point x="295" y="0" type="curve"/>
    </contour>
    <contour>
      <point x="367" y="182" type="curve" smooth="yes"/>
      <point x="564" y="182"/>
      <point x="650" y="275"/>
      <point x="650" y="375" type="curve" smooth="yes"/>
      <point x="650" y="475"/>
      <point x="564" y="569"/>
      <point x="364" y="569" type="curve" smooth="yes"/>
      <point x="164" y="569"/>
      <point x="78" y="475"/>
      <point x="78" y="375" type="curve" smooth="yes"/>
      <point x="78" y="275"/>
      <point x="164" y="182"/>
    </contour>
    <contour>
      <point x="206" y="375" type="curve" smooth="yes"/>
      <point x="206" y="438"/>
      <point x="248" y="494"/>
      <point x="364" y="494" type="curve" smooth="yes"/>
      <point x="480" y="494"/>
      <point x="521" y="438"/>
      <point x="521" y="375" type="curve" smooth="yes"/>
      <point x="521" y="314"/>
      <point x="480" y="257"/>
      <point x="364" y="257" type="curve" smooth="yes"/>
      <point x="248" y="257"/>
      <point x="206" y="314"/>
    </contour>
    <contour>
      <point x="693" y="651" type="line"/>
      <point x="533" y="671"/>
      <point x="508" y="590"/>
      <point x="588" y="486" type="curve"/>
      <point x="607" y="486" type="line"/>
      <point x="567" y="530"/>
      <point x="606" y="582"/>
      <point x="717" y="562" type="curve"/>
    </contour>
  </outline>
</glyph>
<glyph name="j" format="1">
  <advance width="311"/>
  <unicode hex="006A"/>
  <outline>
    <contour>
      <point x="101" y="7" type="line"/>
      <point x="101" y="-92"/>
      <point x="68" y="-145"/>
      <point x="2" y="-145" type="curve"/>
      <point x="-45" y="-145"/>
      <point x="-66" y="-102"/>
      <point x="-66" y="-102" type="curve"/>
      <point x="-90" y="-191" type="line"/>
      <point x="-90" y="-191"/>
      <point x="-57" y="-237"/>
      <point x="24" y="-237" type="curve"/>
      <point x="155" y="-237"/>
      <point x="221" y="-138"/>
      <point x="221" y="15" type="curve"/>
      <point x="221" y="58"/>
      <point x="221" y="555"/>
      <point x="221" y="555" type="curve"/>
      <point x="101" y="555" type="line"/>
    </contour>
    <contour>
      <point x="101" y="681" type="line"/>
      <point x="221" y="681" type="line"/>
      <point x="221" y="777" type="line"/>
      <point x="101" y="777" type="line"/>
    </contour>
  </outline>
</glyph>
<glyph name="k" format="1">
  <advance width="654"/>
  <unicode hex="006B"/>
  <outline>
    <contour>
      <point x="90" y="0" type="line"/>
      <point x="210" y="0" type="line"/>
      <point x="210" y="197" type="line"/>
      <point x="267" y="251" type="line"/>
      <point x="499" y="0" type="line"/>
      <point x="654" y="0" type="line"/>
      <point x="352" y="321" type="line"/>
      <point x="600" y="555" type="line"/>
      <point x="454" y="555" type="line"/>
      <point x="210" y="325" type="line"/>
      <point x="210" y="777" type="line"/>
      <point x="210" y="777"/>
      <point x="161" y="766"/>
      <point x="90" y="766" type="curve"/>
    </contour>
  </outline>
</glyph>
<glyph name="l" format="1">
  <advance width="300"/>
  <unicode hex="006C"/>
  <outline>
    <contour>
      <point x="90" y="0" type="line"/>
      <point x="210" y="0" type="line"/>
      <point x="210" y="777" type="line"/>
      <point x="210" y="777"/>
      <point x="154" y="766"/>
      <point x="90" y="766" type="curve"/>
    </contour>
  </outline>
</glyph>
<glyph name="o" format="1">
  <advance width="750"/>
  <unicode hex="006F"/>
  <outline>
    <contour>
      <point x="375" y="613" type="move" name="top"/>
    </contour>
    <contour>
      <point x="60" y="278" type="curve"/>
      <point x="60" y="114"/>
      <point x="177" y="-14"/>
      <point x="375" y="-14" type="curve" smooth="yes"/>
      <point x="573" y="-14"/>
      <point x="690" y="114"/>
      <point x="690" y="278" type="curve" smooth="yes"/>
      <point x="690" y="441"/>
      <point x="573" y="569"/>
      <point x="375" y="569" type="curve" smooth="yes"/>
      <point x="177" y="569"/>
      <point x="60" y="441"/>
    </contour>
    <contour>
      <point x="188" y="278" type="curve"/>
      <point x="188" y="398"/>
      <point x="259" y="480"/>
      <point x="375" y="480" type="curve" smooth="yes"/>
      <point x="489" y="480"/>
      <point x="562" y="398"/>
      <point x="562" y="278" type="curve" smooth="yes"/>
      <point x="562" y="158"/>
      <point x="489" y="75"/>
      <point x="375" y="75" type="curve" smooth="yes"/>
      <point x="259" y="75"/>
      <point x="188" y="158"/>
    </contour>
  </outline>
</glyph>
<glyph name="s" format="1">
  <advance width="647"/>
  <unicode hex="0073"/>
  <outline>
    <contour>
      <point x="452" y="366" type="line"/>
      <point x="452" y="366"/>
      <point x="464" y="480"/>
      <point x="304" y="480" type="curve"/>
      <point x="223" y="480"/>
      <point x="189" y="449"/>
      <point x="189" y="409" type="curve" smooth="yes"/>
      <point x="189" y="377"/>
      <point x="225" y="351"/>
      <point x="301" y="338" type="curve" smooth="yes"/>
      <point x="437" y="314" type="line" smooth="yes"/>
      <point x="561" y="292"/>
      <point x="607" y="233"/>
      <point x="607" y="160" type="curve"/>
      <point x="607" y="53"/>
      <point x="497" y="-14"/>
      <point x="360" y="-14" type="curve"/>
      <point x="69" y="-14"/>
      <point x="40" y="185"/>
      <point x="40" y="185" type="curve"/>
      <point x="164" y="221" type="line"/>
      <point x="164" y="221"/>
      <point x="146" y="75"/>
      <point x="361" y="75" type="curve"/>
      <point x="436" y="75"/>
      <point x="479" y="108"/>
      <point x="479" y="150" type="curve" smooth="yes"/>
      <point x="479" y="187"/>
      <point x="451" y="215"/>
      <point x="363" y="231" type="curve" smooth="yes"/>
      <point x="241" y="253" type="line" smooth="yes"/>
      <point x="117" y="275"/>
      <point x="71" y="336"/>
      <point x="71" y="403" type="curve"/>
      <point x="71" y="508"/>
      <point x="175" y="569"/>
      <point x="306" y="569" type="curve" smooth="yes"/>
      <point x="560" y="569"/>
      <point x="576" y="402"/>
      <point x="576" y="402" type="curve"/>
    </contour>
  </outline>
</glyph>
<glyph name="w" format="1">
  <advance width="1011"/>
  <unicode hex="0077"/>
  <outline>
    <contour>
      <point x="225" y="0" type="line"/>
      <point x="356" y="0" type="line"/>
      <point x="506" y="465" type="line"/>
      <point x="655" y="0" type="line"/>
      <point x="787" y="0" type="line"/>
      <point x="1001" y="555" type="line"/>
      <point x="863" y="555" type="line"/>
      <point x="715" y="107" type="line"/>
      <point x="578" y="555" type="line"/>
      <point x="433" y="555" type="line"/>
      <point x="297" y="107" type="line"/>
      <point x="148" y="555" type="line"/>
      <point x="10" y="555" type="line"/>
    </contour>
  </outline>
</glyph>
<glyph name="x" format="1">
  <advance width="662"/>
  <unicode hex="0078"/>
  <outline>
    <contour>
      <point x="10" y="0" type="line"/>
      <point x="164" y="0" type="line"/>
      <point x="331" y="204" type="line"/>
      <point x="499" y="0" type="line"/>
      <point x="652" y="0" type="line"/>
      <point x="399" y="276" type="line"/>
      <point x="652" y="555" type="line"/>
      <point x="503" y="555" type="line"/>
      <point x="331" y="350" type="line"/>
      <point x="159" y="555" type="line"/>
      <point x="10" y="555" type="line"/>
      <point x="262" y="276" type="line"/>
    </contour>
  </outline>
</glyph>
<glyph name="z" format="1">
  <advance width="610"/>
  <unicode hex="007A"/>
  <outline>
    <contour>
      <point x="40" y="0" type="line"/>
      <point x="570" y="0" type="line"/>
      <point x="570" y="75" type="line"/>
      <point x="195" y="75" type="line"/>
      <point x="570" y="470" type="line"/>
      <point x="570" y="555" type="line"/>
      <point x="40" y="555" type="line"/>
      <point x="40" y="480" type="line"/>
      <point x="420" y="480" type="line"/>
      <point x="40" y="85" type="line"/>
    </contour>
  </outline>
</glyph>
<glyph name="bar" format="1">
  <advance width="170"/>
  <unicode hex="007C"/>
  <outline>
    <contour>
      <point x="60" y="729" type="line"/>
      <point x="60" y="-110" type="line"/>
      <point x="110" y="-110" type="line"/>
      <point x="110" y="729" type="line"/>
    </contour>
  </outline>
</glyph>
<glyph name="exclamdown" format="1">
  <advance width="290"/>
  <unicode hex="00A1"/>
  <outline>
    <contour>
      <point x="210" y="-557" type="line"/>
      <point x="200" y="-20" type="line"/>
      <point x="90" y="-20" type="line"/>
      <point x="80" y="-557" type="line"/>
    </contour>
    <contour>
      <point x="80" y="75" type="line"/>
      <point x="210" y="75" type="line"/>
      <point x="210" y="220" type="line"/>
      <point x="80" y="220" type="line"/>
    </contour>
  </outline>
</glyph>
<glyph name="sterling" format="1">
  <advance width="800"/>
  <unicode hex="00A3"/>
  <outline>
    <contour>
      <point x="185" y="560" type="curve"/>
      <point x="185" y="642"/>
      <point x="247" y="692"/>
      <point x="374" y="692" type="curve" smooth="yes"/>
      <point x="596" y="692"/>
      <point x="574" y="489"/>
      <point x="574" y="489" type="curve"/>
      <point x="708" y="529" type="line"/>
      <point x="708" y="529"/>
      <point x="716" y="791"/>
      <point x="383" y="791" type="curve" smooth="yes"/>
      <point x="143" y="791"/>
      <point x="48" y="665"/>
      <point x="48" y="546" type="curve" smooth="yes"/>
      <point x="48" y="362"/>
      <point x="276" y="339"/>
      <point x="276" y="207" type="curve" smooth="yes"/>
      <point x="276" y="197"/>
      <point x="275" y="188"/>
      <point x="273" y="179" type="curve"/>
      <point x="237" y="208"/>
      <point x="198" y="233"/>
      <point x="130" y="233" type="curve" smooth="yes"/>
      <point x="45" y="233"/>
      <point x="0" y="182"/>
      <point x="0" y="110" type="curve" smooth="yes"/>
      <point x="0" y="30"/>
      <point x="56" y="-14"/>
      <point x="153" y="-14" type="curve"/>
      <point x="265" y="-14"/>
      <point x="308" y="48"/>
      <point x="308" y="48" type="curve"/>
      <point x="308" y="48"/>
      <point x="379" y="-14"/>
      <point x="481" y="-14" type="curve"/>
      <point x="762" y="-14"/>
      <point x="775" y="293"/>
      <point x="775" y="293" type="curve"/>
      <point x="641" y="332" type="line"/>
      <point x="641" y="332"/>
      <point x="653" y="85"/>
      <point x="464" y="85" type="curve"/>
      <point x="392" y="85"/>
      <point x="358" y="113"/>
      <point x="358" y="113" type="curve"/>
      <point x="371" y="142"/>
      <point x="379" y="171"/>
      <point x="379" y="214" type="curve" smooth="yes"/>
      <point x="379" y="400"/>
      <point x="185" y="406"/>
    </contour>
    <contour>
      <point x="147" y="52" type="curve"/>
      <point x="104" y="52"/>
      <point x="77" y="79"/>
      <point x="77" y="113" type="curve" smooth="yes"/>
      <point x="77" y="146"/>
      <point x="95" y="173"/>
      <point x="137" y="173" type="curve" smooth="yes"/>
      <point x="179" y="173"/>
      <point x="209" y="136"/>
      <point x="242" y="106" type="curve"/>
      <point x="242" y="106"/>
      <point x="210" y="52"/>
    </contour>
    <contour>
      <point x="520" y="391" type="line"/>
      <point x="0" y="391" type="line"/>
      <point x="0" y="341" type="line"/>
      <point x="520" y="341" type="line"/>
    </contour>
  </outline>
</glyph>
<glyph name="brokenbar" format="1">
  <advance width="170"/>
  <unicode hex="00A6"/>
  <outline>
    <contour>
      <point x="60" y="225" type="line"/>
      <point x="60" y="-110" type="line"/>
      <point x="110" y="-110" type="line"/>
      <point x="110" y="225" type="line"/>
    </contour>
    <contour>
      <point x="60" y="729" type="line"/>
      <point x="60" y="394" type="line"/>
      <point x="110" y="394" type="line"/>
      <point x="110" y="729" type="line"/>
    </contour>
  </outline>
</glyph>
<glyph name="section" format="1">
  <advance width="647"/>
  <unicode hex="00A7"/>
  <outline>
    <contour>
      <point x="407" y="130" type="curve"/>
      <point x="538" y="91"/>
      <point x="607" y="10"/>
      <point x="607" y="-63" type="curve" smooth="yes"/>
      <point x="607" y="-170"/>
      <point x="497" y="-237"/>
      <point x="360" y="-237" type="curve" smooth="yes"/>
      <point x="69" y="-237"/>
      <point x="40" y="-38"/>
      <point x="40" y="-38" type="curve"/>
      <point x="164" y="-2" type="line"/>
      <point x="164" y="-2"/>
      <point x="146" y="-148"/>
      <point x="361" y="-148" type="curve" smooth="yes"/>
      <point x="436" y="-148"/>
      <point x="479" y="-113"/>
      <point x="479" y="-67" type="curve" smooth="yes"/>
      <point x="479" y="-30"/>
      <point x="460" y="8"/>
      <point x="383" y="45" type="curve" smooth="yes"/>
      <point x="241" y="113" type="line" smooth="yes"/>
      <point x="136" y="163"/>
      <point x="71" y="213"/>
      <point x="71" y="280" type="curve"/>
      <point x="71" y="355"/>
      <point x="162" y="402"/>
      <point x="238" y="423" type="curve"/>
      <point x="119" y="473"/>
      <point x="40" y="544"/>
      <point x="40" y="617" type="curve" smooth="yes"/>
      <point x="40" y="724"/>
      <point x="150" y="791"/>
      <point x="287" y="791" type="curve" smooth="yes"/>
      <point x="578" y="791"/>
      <point x="607" y="592"/>
      <point x="607" y="592" type="curve"/>
      <point x="483" y="556" type="line"/>
      <point x="483" y="556"/>
      <point x="501" y="702"/>
      <point x="286" y="702" type="curve" smooth="yes"/>
      <point x="211" y="702"/>
      <point x="168" y="665"/>
      <point x="168" y="622" type="curve" smooth="yes"/>
      <point x="168" y="585"/>
      <point x="189" y="547"/>
      <point x="266" y="509" type="curve" smooth="yes"/>
      <point x="412" y="438" type="line" smooth="yes"/>
      <point x="560" y="366"/>
      <point x="576" y="318"/>
      <point x="576" y="269" type="curve" smooth="yes"/>
      <point x="576" y="199"/>
      <point x="484" y="152"/>
    </contour>
    <contour>
      <point x="304" y="347" type="curve"/>
      <point x="243" y="347"/>
      <point x="198" y="328"/>
      <point x="198" y="294" type="curve" smooth="yes"/>
      <point x="198" y="262"/>
      <point x="236" y="207"/>
      <point x="343" y="207" type="curve" smooth="yes"/>
      <point x="403" y="207"/>
      <point x="451" y="228"/>
      <point x="451" y="261" type="curve"/>
      <point x="448" y="306"/>
      <point x="391" y="347"/>
    </contour>
  </outline>
</glyph>
<glyph name="dieresis" format="1">
  <advance width="358"/>
  <unicode hex="00A8"/>
  <outline>
    <contour>
      <point x="19" y="681" type="line"/>
      <point x="139" y="681" type="line"/>
      <point x="139" y="777" type="line"/>
      <point x="19" y="777" type="line"/>
    </contour>
    <contour>
      <point x="219" y="681" type="line"/>
      <point x="339" y="681" type="line"/>
      <point x="339" y="777" type="line"/>
      <point x="219" y="777" type="line"/>
    </contour>
    <contour>
      <point x="179" y="613" type="move" name="_top"/>
    </contour>
  </outline>
</glyph>
<glyph name="acute" format="1">
  <advance width="727"/>
  <unicode hex="00B4"/>
  <outline>
    <contour>
      <point x="601" y="613" type="move" name="_top"/>
    </contour>
    <contour>
      <point x="650" y="821" type="line"/>
      <point x="534" y="633" type="line"/>
      <point x="601" y="633" type="line"/>
      <point x="800" y="821" type="line"/>
    </contour>
  </outline>
</glyph>
<glyph name="guillemotright" format="1">
  <advance width="551"/>
  <unicode hex="00BB"/>
  <outline>
    <contour>
      <point x="120" y="496" type="line"/>
      <point x="30" y="496" type="line"/>
      <point x="181" y="277" type="line"/>
      <point x="30" y="58" type="line"/>
      <point x="120" y="58" type="line"/>
      <point x="301" y="277" type="line"/>
    </contour>
    <contour>
      <point x="340" y="496" type="line"/>
      <point x="250" y="496" type="line"/>
      <point x="401" y="277" type="line"/>
      <point x="250" y="58" type="line"/>
      <point x="340" y="58" type="line"/>
      <point x="521" y="277" type="line"/>
    </contour>
  </outline>
</glyph>
<glyph name="threequarters" format="1">
  <advance width="778"/>
  <unicode hex="00BE"/>
  <outline>
    <contour>
      <point x="403" y="94" type="line"/>
      <point x="635" y="94" type="line"/>
      <point x="635" y="0" type="line"/>
      <point x="700" y="0" type="line"/>
      <point x="700" y="94" type="line"/>
      <point x="778" y="94" type="line"/>
      <point x="778" y="136" type="line"/>
      <point x="700" y="136" type="line"/>
      <point x="700" y="388" type="line"/>
      <point x="614" y="388" type="line"/>
      <point x="403" y="156" type="line"/>
    </contour>
    <contour>
      <point x="635" y="341" type="line"/>
      <point x="635" y="136" type="line"/>
      <point x="453" y="136" type="line"/>
    </contour>
    <contour>
      <point x="168" y="574" type="line"/>
      <point x="226" y="574"/>
      <point x="276" y="559"/>
      <point x="276" y="507" type="curve" smooth="yes"/>
      <point x="276" y="462"/>
      <point x="238" y="438"/>
      <point x="178" y="438" type="curve" smooth="yes"/>
      <point x="59" y="438"/>
      <point x="67" y="543"/>
      <point x="67" y="543" type="curve"/>
      <point x="0" y="523" type="line"/>
      <point x="0" y="523"/>
      <point x="5" y="389"/>
      <point x="180" y="389" type="curve" smooth="yes"/>
      <point x="268" y="389"/>
      <point x="345" y="425"/>
      <point x="345" y="506" type="curve"/>
      <point x="345" y="606"/>
      <point x="231" y="604"/>
      <point x="231" y="604" type="curve"/>
      <point x="231" y="604"/>
      <point x="335" y="604"/>
      <point x="335" y="689" type="curve"/>
      <point x="335" y="746"/>
      <point x="276" y="791"/>
      <point x="186" y="791" type="curve"/>
      <point x="35" y="791"/>
      <point x="20" y="670"/>
      <point x="20" y="670" type="curve"/>
      <point x="87" y="650" type="line"/>
      <point x="87" y="650"/>
      <point x="80" y="742"/>
      <point x="183" y="742" type="curve"/>
      <point x="233" y="742"/>
      <point x="266" y="716"/>
      <point x="266" y="680" type="curve"/>
      <point x="266" y="640"/>
      <point x="227" y="616"/>
      <point x="168" y="616" type="curve"/>
      <point x="143" y="616" type="line"/>
      <point x="143" y="574" type="line"/>
    </contour>
    <component base="fraction" xOffset="171" yOffset="81"/>
  </outline>
</glyph>
<glyph name="questiondown" format="1">
  <advance width="760"/>
  <unicode hex="00BF"/>
  <outline>
    <contour>
      <point x="304" y="75" type="line"/>
      <point x="434" y="75" type="line"/>
      <point x="434" y="220" type="line"/>
      <point x="304" y="220" type="line"/>
    </contour>
    <contour>
      <point x="700" y="-346" type="curve"/>
      <point x="700" y="-164"/>
      <point x="424" y="-165"/>
      <point x="424" y="-20" type="curve"/>
      <point x="314" y="-20" type="line"/>
      <point x="314" y="-210"/>
      <point x="563" y="-167"/>
      <point x="563" y="-335" type="curve"/>
      <point x="563" y="-403"/>
      <point x="510" y="-472"/>
      <point x="397" y="-472" type="curve"/>
      <point x="165" y="-472"/>
      <point x="194" y="-239"/>
      <point x="194" y="-239" type="curve"/>
      <point x="60" y="-279" type="line"/>
      <point x="60" y="-279"/>
      <point x="75" y="-571"/>
      <point x="397" y="-571" type="curve"/>
      <point x="631" y="-571"/>
      <point x="700" y="-438"/>
    </contour>
  </outline>
</glyph>
<glyph name="AE" format="1">
  <advance width="1169"/>
  <unicode hex="00C6"/>
  <outline>
    <contour>
      <point x="584" y="0" type="line"/>
      <point x="1129" y="0" type="line"/>
      <point x="1129" y="85" type="line"/>
      <point x="714" y="85" type="line"/>
      <point x="714" y="347" type="line"/>
      <point x="1072" y="347" type="line"/>
      <point x="1072" y="432" type="line"/>
      <point x="714" y="432" type="line"/>
      <point x="714" y="692" type="line"/>
      <point x="1100" y="692" type="line"/>
      <point x="1100" y="777" type="line"/>
      <point x="584" y="777" type="line"/>
    </contour>
    <contour>
      <point x="460" y="692" type="line"/>
      <point x="595" y="692" type="line"/>
      <point x="684" y="777" type="line"/>
      <point x="370" y="777" type="line"/>
      <point x="10" y="0" type="line"/>
      <point x="148" y="0" type="line"/>
    </contour>
    <contour>
      <point x="240" y="432" type="line"/>
      <point x="240" y="347" type="line"/>
      <point x="688" y="347" type="line"/>
      <point x="688" y="432" type="line"/>
    </contour>
  </outline>
</glyph>
<glyph name="multiply" format="1">
  <advance width="650"/>
  <unicode hex="00D7"/>
  <outline>
    <contour>
      <point x="554" y="538" type="line"/>
      <point x="60" y="44" type="line"/>
      <point x="96" y="8" type="line"/>
      <point x="590" y="502" type="line"/>
    </contour>
    <contour>
      <point x="60" y="502" type="line"/>
      <point x="554" y="8" type="line"/>
      <point x="590" y="44" type="line"/>
      <point x="96" y="538" type="line"/>
    </contour>
    <contour>
      <point x="321" y="568" type="move" name="_top"/>
    </contour>
  </outline>
</glyph>
<glyph name="Oslash" format="1">
  <advance width="1027"/>
  <unicode hex="00D8"/>
  <outline>
    <contour>
      <point x="649" y="882" type="line"/>
      <point x="328" y="-90" type="line"/>
      <point x="377" y="-105" type="line"/>
      <point x="700" y="866" type="line"/>
    </contour>
    <component base="O"/>
  </outline>
</glyph>
<glyph name="ae" format="1">
  <advance width="1077"/>
  <unicode hex="00E6"/>
  <outline>
    <contour>
      <point x="741" y="75" type="curve" smooth="yes"/>
      <point x="891" y="75"/>
      <point x="893" y="221"/>
      <point x="893" y="221" type="curve"/>
      <point x="1017" y="185" type="line"/>
      <point x="1017" y="185"/>
      <point x="982" y="-14"/>
      <point x="738" y="-14" type="curve" smooth="yes"/>
      <point x="606" y="-14"/>
      <point x="491" y="58"/>
      <point x="469" y="227" type="curve"/>
      <point x="469" y="227"/>
      <point x="380" y="-14"/>
      <point x="204" y="-14" type="curve" smooth="yes"/>
      <point x="122" y="-14"/>
      <point x="70" y="39"/>
      <point x="70" y="108" type="curve" smooth="yes"/>
      <point x="70" y="201"/>
      <point x="152" y="330"/>
      <point x="450" y="364" type="curve"/>
      <point x="450" y="364"/>
      <point x="460" y="480"/>
      <point x="331" y="480" type="curve" smooth="yes"/>
      <point x="201" y="480"/>
      <point x="174" y="368"/>
      <point x="174" y="368" type="curve"/>
      <point x="50" y="404" type="line"/>
      <point x="50" y="404"/>
      <point x="104" y="569"/>
      <point x="327" y="569" type="curve" smooth="yes"/>
      <point x="422" y="569"/>
      <point x="493" y="529"/>
      <point x="528" y="480" type="curve"/>
      <point x="572" y="530"/>
      <point x="645" y="569"/>
      <point x="738" y="569" type="curve" smooth="yes"/>
      <point x="1040" y="569"/>
      <point x="1002" y="273"/>
      <point x="1002" y="273" type="curve"/>
      <point x="578" y="283" type="line"/>
      <point x="578" y="278" type="line" smooth="yes"/>
      <point x="578" y="160"/>
      <point x="628" y="75"/>
    </contour>
    <contour>
      <point x="197" y="133" type="curve" smooth="yes"/>
      <point x="197" y="95"/>
      <point x="217" y="75"/>
      <point x="250" y="75" type="curve" smooth="yes"/>
      <point x="356" y="75"/>
      <point x="452" y="253"/>
      <point x="450" y="295" type="curve"/>
      <point x="450" y="330" type="line"/>
      <point x="227" y="273"/>
      <point x="197" y="182"/>
    </contour>
    <contour>
      <point x="875" y="338" type="line"/>
      <point x="875" y="338"/>
      <point x="878" y="480"/>
      <point x="731" y="480" type="curve" smooth="yes"/>
      <point x="634" y="480"/>
      <point x="590" y="417"/>
      <point x="580" y="324" type="curve"/>
    </contour>
  </outline>
</glyph>
<glyph name="circumflex" format="1">
  <advance width="1204"/>
  <unicode hex="02C6"/>
  <outline>
    <contour>
      <point x="601" y="613" type="move" name="_top"/>
    </contour>
    <contour>
      <point x="556" y="821" type="line"/>
      <point x="380" y="633" type="line"/>
      <point x="447" y="633" type="line"/>
      <point x="601" y="739" type="line"/>
      <point x="755" y="633" type="line"/>
      <point x="822" y="633" type="line"/>
      <point x="646" y="821" type="line"/>
    </contour>
  </outline>
</glyph>
<glyph name="quoteright" format="1">
  <advance width="310"/>
  <unicode hex="2019"/>
  <outline>
    <contour>
      <point x="220" y="802" type="line"/>
      <point x="90" y="802" type="line"/>
      <point x="90" y="657" type="line"/>
      <point x="90" y="657"/>
      <point x="161" y="657"/>
      <point x="161" y="657" type="curve"/>
      <point x="141" y="560"/>
      <point x="52" y="507"/>
      <point x="52" y="507" type="curve"/>
      <point x="140" y="481" type="line"/>
      <point x="140" y="481"/>
      <point x="220" y="559"/>
      <point x="220" y="682" type="curve" smooth="yes"/>
    </contour>
  </outline>
</glyph>
<glyph name="quotesinglbase" format="1">
  <advance width="310"/>
  <unicode hex="201A"/>
  <outline>
    <contour>
      <point x="220" y="145" type="line"/>
      <point x="90" y="145" type="line"/>
      <point x="90" y="0" type="line"/>
      <point x="90" y="0"/>
      <point x="161" y="0"/>
      <point x="161" y="0" type="curve"/>
      <point x="141" y="-97"/>
      <point x="52" y="-150"/>
      <point x="52" y="-150" type="curve"/>
      <point x="140" y="-176" type="line"/>
      <point x="140" y="-176"/>
      <point x="220" y="-98"/>
      <point x="220" y="25" type="curve"/>
    </contour>
  </outline>
</glyph>
<glyph name="quotedblright" format="1">
  <advance width="560"/>
  <unicode hex="201D"/>
  <outline>
    <contour>
      <point x="220" y="801" type="line"/>
      <point x="90" y="801" type="line"/>
      <point x="90" y="656" type="line"/>
      <point x="90" y="656"/>
      <point x="161" y="656"/>
      <point x="161" y="656" type="curve"/>
      <point x="141" y="559"/>
      <point x="52" y="506"/>
      <point x="52" y="506" type="curve"/>
      <point x="140" y="480" type="line"/>
      <point x="140" y="480"/>
      <point x="220" y="558"/>
      <point x="220" y="681" type="curve"/>
    </contour>
    <contour>
      <point x="470" y="801" type="line"/>
      <point x="340" y="801" type="line"/>
      <point x="340" y="656" type="line"/>
      <point x="340" y="656"/>
      <point x="411" y="656"/>
      <point x="411" y="656" type="curve"/>
      <point x="391" y="559"/>
      <point x="302" y="506"/>
      <point x="302" y="506" type="curve"/>
      <point x="390" y="480" type="line"/>
      <point x="390" y="480"/>
      <point x="470" y="558"/>
      <point x="470" y="681" type="curve" smooth="yes"/>
    </contour>
  </outline>
</glyph>
<glyph name="dagger" format="1">
  <advance width="480"/>
  <unicode hex="2020"/>
  <outline>
    <contour>
      <point x="460" y="480" type="line"/>
      <point x="460" y="555" type="line"/>
      <point x="300" y="555" type="line"/>
      <point x="285" y="777" type="line"/>
      <point x="195" y="777" type="line"/>
      <point x="180" y="555" type="line"/>
      <point x="20" y="555" type="line"/>
      <point x="20" y="480" type="line"/>
      <point x="180" y="480" type="line"/>
      <point x="180" y="-223" type="line"/>
      <point x="300" y="-223" type="line"/>
      <point x="300" y="480" type="line"/>
    </contour>
  </outline>
</glyph>
<glyph name="ellipsis" format="1">
  <advance width="770"/>
  <unicode hex="2026"/>
  <outline>
    <contour>
      <point x="90" y="0" type="line"/>
      <point x="220" y="0" type="line"/>
      <point x="220" y="145" type="line"/>
      <point x="90" y="145" type="line"/>
    </contour>
    <contour>
      <point x="320" y="0" type="line"/>
      <point x="450" y="0" type="line"/>
      <point x="450" y="135" type="line"/>
      <point x="320" y="135" type="line"/>
    </contour>
    <contour>
      <point x="550" y="0" type="line"/>
      <point x="680" y="0" type="line"/>
      <point x="680" y="125" type="line"/>
      <point x="550" y="125" type="line"/>
    </contour>
  </outline>
</glyph>
<glyph name="perthousand" format="1">
  <advance width="1285"/>
  <unicode hex="2030"/>
  <outline>
    <contour>
      <point x="20" y="590" type="curve" smooth="yes"/>
      <point x="20" y="469"/>
      <point x="110" y="389"/>
      <point x="231" y="389" type="curve" smooth="yes"/>
      <point x="352" y="389"/>
      <point x="442" y="469"/>
      <point x="442" y="590" type="curve" smooth="yes"/>
      <point x="442" y="711"/>
      <point x="352" y="792"/>
      <point x="231" y="792" type="curve" smooth="yes"/>
      <point x="110" y="792"/>
      <point x="20" y="711"/>
    </contour>
    <contour>
      <point x="81" y="590" type="curve" smooth="yes"/>
      <point x="81" y="677"/>
      <point x="132" y="744"/>
      <point x="231" y="744" type="curve" smooth="yes"/>
      <point x="330" y="744"/>
      <point x="381" y="677"/>
      <point x="381" y="590" type="curve" smooth="yes"/>
      <point x="381" y="503"/>
      <point x="330" y="436"/>
      <point x="231" y="436" type="curve" smooth="yes"/>
      <point x="132" y="436"/>
      <point x="81" y="503"/>
    </contour>
    <contour>
      <point x="482" y="190" type="curve" smooth="yes"/>
      <point x="482" y="69"/>
      <point x="572" y="-11"/>
      <point x="693" y="-11" type="curve" smooth="yes"/>
      <point x="814" y="-11"/>
      <point x="904" y="69"/>
      <point x="904" y="190" type="curve" smooth="yes"/>
      <point x="904" y="311"/>
      <point x="814" y="392"/>
      <point x="693" y="392" type="curve" smooth="yes"/>
      <point x="572" y="392"/>
      <point x="482" y="311"/>
    </contour>
    <contour>
      <point x="543" y="190" type="curve" smooth="yes"/>
      <point x="543" y="277"/>
      <point x="594" y="344"/>
      <point x="693" y="344" type="curve" smooth="yes"/>
      <point x="792" y="344"/>
      <point x="843" y="277"/>
      <point x="843" y="190" type="curve" smooth="yes"/>
      <point x="843" y="103"/>
      <point x="792" y="36"/>
      <point x="693" y="36" type="curve" smooth="yes"/>
      <point x="594" y="36"/>
      <point x="543" y="103"/>
    </contour>
    <contour>
      <point x="843" y="190" type="curve" smooth="yes"/>
      <point x="843" y="69"/>
      <point x="933" y="-11"/>
      <point x="1054" y="-11" type="curve" smooth="yes"/>
      <point x="1175" y="-11"/>
      <point x="1265" y="69"/>
      <point x="1265" y="190" type="curve" smooth="yes"/>
      <point x="1265" y="311"/>
      <point x="1175" y="392"/>
      <point x="1054" y="392" type="curve" smooth="yes"/>
      <point x="933" y="392"/>
      <point x="843" y="311"/>
    </contour>
    <contour>
      <point x="904" y="190" type="curve" smooth="yes"/>
      <point x="904" y="277"/>
      <point x="955" y="344"/>
      <point x="1054" y="344" type="curve" smooth="yes"/>
      <point x="1153" y="344"/>
      <point x="1204" y="277"/>
      <point x="1204" y="190" type="curve" smooth="yes"/>
      <point x="1204" y="103"/>
      <point x="1153" y="36"/>
      <point x="1054" y="36" type="curve" smooth="yes"/>
      <point x="955" y="36"/>
      <point x="904" y="103"/>
    </contour>
    <component base="fraction" xOffset="233" yOffset="81"/>
  </outline>
</glyph>
<glyph name="guilsinglleft" format="1">
  <advance width="331"/>
  <unicode hex="2039"/>
  <outline>
    <contour>
      <point x="30" y="277" type="line"/>
      <point x="211" y="58" type="line"/>
      <point x="301" y="58" type="line"/>
      <point x="150" y="277" type="line"/>
      <point x="301" y="496" type="line"/>
      <point x="211" y="496" type="line"/>
    </contour>
  </outline>
</glyph>
<glyph name="Euro" format="1">
  <advance width="800"/>
  <unicode hex="20AC"/>
  <outline>
    <contour>
      <point x="626" y="332" type="line"/>
      <point x="760" y="293" type="line"/>
    </contour>
    <contour>
      <point x="743" y="469" type="line"/>
      <point x="609" y="429" type="line"/>
    </contour>
    <contour>
      <point x="743" y="469" type="line"/>
      <point x="743" y="469"/>
      <point x="771" y="791"/>
      <point x="413" y="791" type="curve"/>
      <point x="187" y="791"/>
      <point x="60" y="622"/>
      <point x="60" y="388" type="curve" smooth="yes"/>
      <point x="60" y="155"/>
      <point x="197" y="-14"/>
      <point x="423" y="-14" type="curve"/>
      <point x="753" y="-14"/>
      <point x="760" y="293"/>
      <point x="760" y="293" type="curve"/>
      <point x="626" y="332" type="line"/>
      <point x="626" y="332"/>
      <point x="644" y="85"/>
      <point x="423" y="85" type="curve"/>
      <point x="265" y="85"/>
      <point x="197" y="217"/>
      <point x="197" y="388" type="curve" smooth="yes"/>
      <point x="197" y="560"/>
      <point x="255" y="692"/>
      <point x="413" y="692" type="curve"/>
      <point x="629" y="692"/>
      <point x="609" y="429"/>
      <point x="609" y="429" type="curve"/>
    </contour>
    <contour>
      <point x="520" y="332" type="line"/>
      <point x="0" y="332" type="line"/>
      <point x="0" y="282" type="line"/>
      <point x="520" y="282" type="line"/>
    </contour>
    <contour>
      <point x="540" y="492" type="line"/>
      <point x="20" y="492" type="line"/>
      <point x="20" y="442" type="line"/>
      <point x="540" y="442" type="line"/>
    </contour>
    <contour>
      <point x="484" y="835" type="move" name="top"/>
    </contour>
    <contour>
      <point x="484" y="-29" type="move" name="bottom"/>
    </contour>
  </outline>
</glyph>
<glyph name="f_i" format="1">
  <advance width="706"/>
  <unicode hex="FB01"/>
  <outline>
    <contour>
      <point x="482" y="0" type="line"/>
      <point x="602" y="0" type="line"/>
      <point x="602" y="555" type="line"/>
      <point x="482" y="555" type="line"/>
    </contour>
    <contour>
      <point x="330" y="712" type="curve" smooth="yes"/>
      <point x="464" y="712"/>
      <point x="492" y="590"/>
      <point x="492" y="590" type="curve"/>
      <point x="616" y="626" type="line"/>
      <point x="616" y="626"/>
      <point x="562" y="791"/>
      <point x="326" y="791" type="curve"/>
      <point x="161" y="791"/>
      <point x="101" y="712"/>
      <point x="101" y="646" type="curve"/>
      <point x="101" y="575"/>
      <point x="170" y="555"/>
      <point x="170" y="555" type="curve"/>
      <point x="10" y="555" type="line"/>
      <point x="10" y="480" type="line"/>
      <point x="134" y="480" type="line"/>
      <point x="134" y="0" type="line"/>
      <point x="254" y="0" type="line"/>
      <point x="254" y="480" type="line"/>
      <point x="482" y="480" type="line"/>
      <point x="482" y="555" type="line"/>
      <point x="248" y="555" type="line"/>
      <point x="248" y="555"/>
      <point x="218" y="582"/>
      <point x="218" y="626" type="curve"/>
      <point x="218" y="679"/>
      <point x="261" y="712"/>
    </contour>
  </outline>
</glyph>
<glyph name="A.smcp" format="1">
  <advance width="711"/>
  <outline>
    <contour>
      <point x="353" y="480" type="line"/>
      <point x="359" y="480" type="line"/>
      <point x="573" y="0" type="line"/>
      <point x="701" y="0" type="line"/>
      <point x="439" y="569" type="line"/>
      <point x="271" y="569" type="line"/>
      <point x="10" y="0" type="line"/>
      <point x="137" y="0" type="line"/>
    </contour>
    <contour>
      <point x="177" y="258" type="line"/>
      <point x="177" y="171" type="line"/>
      <point x="530" y="171" type="line"/>
      <point x="530" y="258" type="line"/>
    </contour>
    <contour>
      <point x="276" y="625" type="move" name="top"/>
    </contour>
  </outline>
</glyph>
<glyph name="B.smcp" format="1">
  <advance width="662"/>
  <outline>
    <contour>
      <point x="602" y="167" type="curve" smooth="yes"/>
      <point x="602" y="56"/>
      <point x="521" y="0"/>
      <point x="346" y="0" type="curve"/>
      <point x="90" y="0" type="line"/>
      <point x="90" y="569" type="line"/>
      <point x="332" y="569" type="line"/>
      <point x="508" y="569"/>
      <point x="588" y="515"/>
      <point x="588" y="421" type="curve" smooth="yes"/>
      <point x="588" y="353"/>
      <point x="513" y="305"/>
      <point x="513" y="305" type="curve"/>
      <point x="554" y="288"/>
      <point x="602" y="252"/>
    </contour>
    <contour>
      <point x="208" y="247" type="line"/>
      <point x="208" y="85" type="line"/>
      <point x="346" y="85" type="line"/>
      <point x="421" y="85"/>
      <point x="479" y="102"/>
      <point x="479" y="167" type="curve" smooth="yes"/>
      <point x="479" y="232"/>
      <point x="421" y="247"/>
      <point x="346" y="247" type="curve"/>
    </contour>
    <contour>
      <point x="208" y="334" type="line"/>
      <point x="332" y="334" type="line"/>
      <point x="407" y="334"/>
      <point x="464" y="349"/>
      <point x="464" y="407" type="curve" smooth="yes"/>
      <point x="464" y="465"/>
      <point x="407" y="480"/>
      <point x="332" y="480" type="curve"/>
      <point x="208" y="480" type="line"/>
    </contour>
  </outline>
</glyph>
<glyph name="C.smcp" format="1">
  <advance width="748"/>
  <outline>
    <contour>
      <point x="376" y="625" type="move" name="top"/>
    </contour>
    <contour>
      <point x="376" y="-6" type="move" name="bottom"/>
    </contour>
    <contour>
      <point x="683" y="349" type="line"/>
      <point x="683" y="349"/>
      <point x="669" y="579"/>
      <point x="374" y="579" type="curve" smooth="yes"/>
      <point x="173" y="579"/>
      <point x="60" y="453"/>
      <point x="60" y="283" type="curve" smooth="yes"/>
      <point x="60" y="113"/>
      <point x="181" y="-14"/>
      <point x="380" y="-14" type="curve" smooth="yes"/>
      <point x="663" y="-14"/>
      <point x="688" y="228"/>
      <point x="688" y="228" type="curve"/>
      <point x="566" y="262" type="line"/>
      <point x="566" y="262"/>
      <point x="562" y="85"/>
      <point x="380" y="85" type="curve" smooth="yes"/>
      <point x="259" y="85"/>
      <point x="183" y="172"/>
      <point x="183" y="283" type="curve" smooth="yes"/>
      <point x="183" y="394"/>
      <point x="253" y="480"/>
      <point x="374" y="480" type="curve" smooth="yes"/>
      <point x="565" y="480"/>
      <point x="561" y="313"/>
      <point x="561" y="313" type="curve"/>
    </contour>
  </outline>
</glyph>
<glyph name="D.smcp" format="1">
  <advance width="714"/>
  <outline>
    <contour>
      <point x="346" y="569" type="line"/>
      <point x="535" y="569"/>
      <point x="654" y="458"/>
      <point x="654" y="283" type="curve" smooth="yes"/>
      <point x="654" y="108"/>
      <point x="535" y="0"/>
      <point x="346" y="0" type="curve"/>
      <point x="90" y="0" type="line"/>
      <point x="90" y="569" type="line"/>
    </contour>
    <contour>
      <point x="209" y="480" type="line"/>
      <point x="209" y="85" type="line"/>
      <point x="305" y="85" type="line"/>
      <point x="448" y="85"/>
      <point x="531" y="154"/>
      <point x="531" y="283" type="curve" smooth="yes"/>
      <point x="531" y="412"/>
      <point x="448" y="480"/>
      <point x="305" y="480" type="curve"/>
    </contour>
  </outline>
</glyph>
<glyph name="E.smcp" format="1">
  <advance width="584"/>
  <outline>
    <contour>
      <point x="90" y="0" type="line"/>
      <point x="544" y="0" type="line"/>
      <point x="544" y="85" type="line"/>
      <point x="208" y="85" type="line"/>
      <point x="208" y="240" type="line"/>
      <point x="504" y="240" type="line"/>
      <point x="504" y="327" type="line"/>
      <point x="208" y="327" type="line"/>
      <point x="208" y="480" type="line"/>
      <point x="523" y="480" type="line"/>
      <point x="523" y="569" type="line"/>
      <point x="90" y="569" type="line"/>
    </contour>
    <contour>
      <point x="346" y="625" type="move" name="top"/>
    </contour>
  </outline>
</glyph>
<glyph name="G.smcp" format="1">
  <advance width="751"/>
  <outline>
    <contour>
      <point x="671" y="370" type="line"/>
      <point x="671" y="370"/>
      <point x="645" y="579"/>
      <point x="374" y="579" type="curve" smooth="yes"/>
      <point x="172" y="579"/>
      <point x="60" y="453"/>
      <point x="60" y="283" type="curve" smooth="yes"/>
      <point x="60" y="113"/>
      <point x="173" y="-14"/>
      <point x="353" y="-14" type="curve" smooth="yes"/>
      <point x="459" y="-14"/>
      <point x="514" y="32"/>
      <point x="542" y="67" type="curve"/>
      <point x="542" y="0" type="line"/>
      <point x="661" y="0" type="line"/>
      <point x="661" y="302" type="line"/>
      <point x="339" y="302" type="line"/>
      <point x="339" y="214" type="line"/>
      <point x="541" y="214" type="line"/>
      <point x="541" y="214"/>
      <point x="504" y="85"/>
      <point x="367" y="85" type="curve" smooth="yes"/>
      <point x="252" y="85"/>
      <point x="183" y="172"/>
      <point x="183" y="283" type="curve" smooth="yes"/>
      <point x="183" y="394"/>
      <point x="253" y="480"/>
      <point x="374" y="480" type="curve" smooth="yes"/>
      <point x="544" y="480"/>
      <point x="550" y="334"/>
      <point x="550" y="334" type="curve"/>
    </contour>
  </outline>
</glyph>
<glyph name="I.smcp" format="1">
  <advance width="299"/>
  <outline>
    <contour>
      <point x="90" y="569" type="line"/>
      <point x="90" y="0" type="line"/>
      <point x="209" y="0" type="line"/>
      <point x="209" y="569" type="line"/>
    </contour>
    <contour>
      <point x="159" y="625" type="move" name="top"/>
    </contour>
  </outline>
</glyph>
<glyph name="J.smcp" format="1">
  <advance width="591"/>
  <outline>
    <contour>
      <point x="40" y="228" type="line"/>
      <point x="41" y="65"/>
      <point x="132" y="-14"/>
      <point x="271" y="-14" type="curve" smooth="yes"/>
      <point x="410" y="-14"/>
      <point x="501" y="64"/>
      <point x="501" y="221" type="curve"/>
      <point x="501" y="569" type="line"/>
      <point x="382" y="569" type="line"/>
      <point x="382" y="221" type="line"/>
      <point x="382" y="145"/>
      <point x="348" y="85"/>
      <point x="271" y="85" type="curve" smooth="yes"/>
      <point x="193" y="85"/>
      <point x="159" y="145"/>
      <point x="159" y="221" type="curve" smooth="yes"/>
      <point x="159" y="245"/>
      <point x="165" y="264"/>
      <point x="165" y="264" type="curve"/>
    </contour>
  </outline>
</glyph>
<glyph name="K.smcp" format="1">
  <advance width="666"/>
  <outline>
    <contour>
      <point x="209" y="569" type="line"/>
      <point x="90" y="569" type="line"/>
      <point x="90" y="0" type="line"/>
      <point x="209" y="0" type="line"/>
    </contour>
    <contour>
      <point x="90" y="223" type="line"/>
      <point x="199" y="194" type="line"/>
      <point x="620" y="569" type="line"/>
      <point x="467" y="569" type="line"/>
    </contour>
    <contour>
      <point x="514" y="0" type="line"/>
      <point x="656" y="0" type="line"/>
      <point x="336" y="364" type="line"/>
      <point x="256" y="294" type="line"/>
    </contour>
  </outline>
</glyph>
<glyph name="L.smcp" format="1">
  <advance width="526"/>
  <outline>
    <contour>
      <point x="90" y="0" type="line"/>
      <point x="516" y="0" type="line"/>
      <point x="516" y="85" type="line"/>
      <point x="209" y="85" type="line"/>
      <point x="209" y="567" type="line"/>
      <point x="90" y="567" type="line"/>
    </contour>
  </outline>
</glyph>
<glyph name="N.smcp" format="1">
  <advance width="728"/>
  <outline>
    <contour>
      <point x="638" y="569" type="line"/>
      <point x="520" y="569" type="line"/>
      <point x="520" y="143" type="line"/>
      <point x="222" y="569" type="line"/>
      <point x="90" y="569" type="line"/>
      <point x="90" y="0" type="line"/>
      <point x="209" y="0" type="line"/>
      <point x="209" y="426" type="line"/>
      <point x="506" y="0" type="line"/>
      <point x="638" y="0" type="line"/>
    </contour>
  </outline>
</glyph>
<glyph name="R.smcp" format="1">
  <advance width="656"/>
  <outline>
    <contour>
      <point x="90" y="569" type="line"/>
      <point x="333" y="569" type="line"/>
      <point x="508" y="569"/>
      <point x="588" y="515"/>
      <point x="588" y="407" type="curve" smooth="yes"/>
      <point x="588" y="339"/>
      <point x="544" y="283"/>
      <point x="463" y="279" type="curve"/>
      <point x="509" y="274"/>
      <point x="539" y="238"/>
      <point x="549" y="196" type="curve" smooth="yes"/>
      <point x="584" y="57"/>
      <point x="593" y="32"/>
      <point x="616" y="0" type="curve"/>
      <point x="486" y="0" type="line"/>
      <point x="471" y="20"/>
      <point x="465" y="45"/>
      <point x="442" y="144" type="curve"/>
      <point x="434" y="175" type="line"/>
      <point x="421" y="223"/>
      <point x="385" y="247"/>
      <point x="283" y="247" type="curve"/>
      <point x="208" y="247" type="line"/>
      <point x="208" y="0" type="line"/>
      <point x="90" y="0" type="line"/>
    </contour>
    <contour>
      <point x="208" y="334" type="line"/>
      <point x="333" y="334" type="line"/>
      <point x="408" y="334"/>
      <point x="465" y="349"/>
      <point x="465" y="407" type="curve" smooth="yes"/>
      <point x="465" y="465"/>
      <point x="408" y="480"/>
      <point x="333" y="480" type="curve"/>
      <point x="208" y="480" type="line"/>
    </contour>
  </outline>
</glyph>
<glyph name="T.smcp" format="1">
  <advance width="594"/>
  <outline>
    <contour>
      <point x="10" y="480" type="line"/>
      <point x="239" y="480" type="line"/>
      <point x="239" y="0" type="line"/>
      <point x="355" y="0" type="line"/>
      <point x="355" y="480" type="line"/>
      <point x="584" y="480" type="line"/>
      <point x="584" y="569" type="line"/>
      <point x="10" y="569" type="line"/>
    </contour>
  </outline>
</glyph>
<glyph name="U.smcp" format="1">
  <advance width="718"/>
  <outline>
    <contour>
      <point x="509" y="569" type="line"/>
      <point x="509" y="236" type="line"/>
      <point x="509" y="109"/>
      <point x="452" y="85"/>
      <point x="358" y="85" type="curve" smooth="yes"/>
      <point x="265" y="85"/>
      <point x="209" y="109"/>
      <point x="209" y="236" type="curve"/>
      <point x="209" y="569" type="line"/>
      <point x="90" y="569" type="line"/>
      <point x="90" y="236" type="line"/>
      <point x="90" y="72"/>
      <point x="180" y="-14"/>
      <point x="358" y="-14" type="curve" smooth="yes"/>
      <point x="537" y="-14"/>
      <point x="628" y="72"/>
      <point x="628" y="236" type="curve"/>
      <point x="628" y="569" type="line"/>
    </contour>
    <contour>
      <point x="381" y="625" type="move" name="top"/>
    </contour>
  </outline>
</glyph>
<glyph name="V.smcp" format="1">
  <advance width="669"/>
  <outline>
    <contour>
      <point x="659" y="569" type="line"/>
      <point x="531" y="569" type="line"/>
      <point x="334" y="100" type="line"/>
      <point x="137" y="569" type="line"/>
      <point x="10" y="569" type="line"/>
      <point x="260" y="0" type="line"/>
      <point x="407" y="0" type="line"/>
    </contour>
  </outline>
</glyph>
<glyph name="W.smcp" format="1">
  <advance width="952"/>
  <outline>
    <contour>
      <point x="942" y="569" type="line"/>
      <point x="815" y="569" type="line"/>
      <point x="675" y="110" type="line"/>
      <point x="541" y="569" type="line"/>
      <point x="410" y="569" type="line"/>
      <point x="275" y="110" type="line"/>
      <point x="136" y="569" type="line"/>
      <point x="10" y="569" type="line"/>
      <point x="202" y="0" type="line"/>
      <point x="350" y="0" type="line"/>
      <point x="476" y="411" type="line"/>
      <point x="601" y="0" type="line"/>
      <point x="749" y="0" type="line"/>
    </contour>
  </outline>
</glyph>
<glyph name="X.smcp" format="1">
  <advance width="660"/>
  <outline>
    <contour>
      <point x="507" y="0" type="line"/>
      <point x="650" y="0" type="line"/>
      <point x="153" y="569" type="line"/>
      <point x="10" y="569" type="line"/>
    </contour>
    <contour>
      <point x="10" y="0" type="line"/>
      <point x="153" y="0" type="line"/>
      <point x="650" y="569" type="line"/>
      <point x="507" y="569" type="line"/>
    </contour>
  </outline>
</glyph>
<glyph name="acute.case" format="1">
  <advance width="727"/>
  <outline>
    <contour>
      <point x="610" y="821" type="line"/>
      <point x="494" y="633" type="line"/>
      <point x="561" y="633" type="line"/>
      <point x="760" y="821" type="line"/>
    </contour>
    <contour>
      <point x="601" y="613" type="move" name="_top"/>
    </contour>
  </outline>
</glyph>
<glyph name="circumflex.case" format="1">
  <advance width="1204"/>
  <outline>
    <contour>
      <point x="526" y="821" type="line"/>
      <point x="350" y="633" type="line"/>
      <point x="417" y="633" type="line"/>
      <point x="571" y="739" type="line"/>
      <point x="725" y="633" type="line"/>
      <point x="792" y="633" type="line"/>
      <point x="616" y="821" type="line"/>
    </contour>
    <contour>
      <point x="601" y="613" type="move" name="_top"/>
    </contour>
  </outline>
</glyph>
<glyph name="dieresis.case" format="1">
  <advance width="358"/>
  <outline>
    <contour>
      <point x="179" y="613" type="move" name="_top"/>
    </contour>
    <contour>
      <point x="19" y="681" type="line"/>
      <point x="139" y="681" type="line"/>
      <point x="139" y="777" type="line"/>
      <point x="19" y="777" type="line"/>
    </contour>
    <contour>
      <point x="219" y="681" type="line"/>
      <point x="339" y="681" type="line"/>
      <point x="339" y="777" type="line"/>
      <point x="219" y="777" type="line"/>
    </contour>
  </outline>
</glyph>
<glyph name="grave.case" format="1">
  <advance width="727"/>
  <outline>
    <contour>
      <point x="380" y="821" type="line"/>
      <point x="579" y="633" type="line"/>
      <point x="646" y="633" type="line"/>
      <point x="530" y="821" type="line"/>
    </contour>
    <contour>
      <point x="601" y="613" type="move" name="_top"/>
    </contour>
  </outline>
</glyph>
<glyph name="one.susp_prop" format="1">
  <advance width="570"/>
  <outline>
    <contour>
      <point x="480" y="0" type="line"/>
      <point x="480" y="555" type="line"/>
      <point x="360" y="555" type="line"/>
      <point x="360" y="403"/>
      <point x="259" y="357"/>
      <point x="60" y="357" type="curve"/>
      <point x="60" y="268" type="line"/>
      <point x="308" y="268"/>
      <point x="359" y="320"/>
      <point x="359" y="470" type="curve"/>
      <point x="360" y="0" type="line"/>
    </contour>
  </outline>
</glyph>
<glyph name="six.susp_prop" format="1">
  <advance width="800"/>
  <outline>
    <contour>
      <point x="187" y="272" type="curve"/>
      <point x="205" y="410"/>
      <point x="303" y="500"/>
      <point x="468" y="500" type="curve" smooth="yes"/>
      <point x="603" y="500"/>
      <point x="740" y="423"/>
      <point x="740" y="243" type="curve" smooth="yes"/>
      <point x="740" y="93"/>
      <point x="603" y="-14"/>
      <point x="416" y="-14" type="curve" smooth="yes"/>
      <point x="189" y="-14"/>
      <point x="60" y="155"/>
      <point x="60" y="389" type="curve" smooth="yes"/>
      <point x="60" y="622"/>
      <point x="193" y="791"/>
      <point x="420" y="791" type="curve"/>
      <point x="682" y="791"/>
      <point x="730" y="569"/>
      <point x="730" y="569" type="curve"/>
      <point x="607" y="529" type="line"/>
      <point x="607" y="529"/>
      <point x="592" y="702"/>
      <point x="420" y="702" type="curve"/>
      <point x="271" y="702"/>
      <point x="187" y="560"/>
      <point x="187" y="389" type="curve" smooth="yes"/>
      <point x="187" y="217"/>
      <point x="267" y="75"/>
      <point x="416" y="75" type="curve" smooth="yes"/>
      <point x="545" y="75"/>
      <point x="613" y="143"/>
      <point x="613" y="243" type="curve" smooth="yes"/>
      <point x="613" y="343"/>
      <point x="545" y="411"/>
      <point x="416" y="411" type="curve" smooth="yes"/>
      <point x="278" y="411"/>
      <point x="214" y="306"/>
      <point x="221" y="209" type="curve"/>
      <point x="221" y="209"/>
      <point x="187" y="272"/>
    </contour>
  </outline>
</glyph>
<glyph name="tilde.case" format="1">
  <advance width="1204"/>
  <outline>
    <contour>
      <point x="682" y="735" type="curve"/>
      <point x="625" y="735"/>
      <point x="600" y="791"/>
      <point x="525" y="791" type="curve"/>
      <point x="442" y="791"/>
      <point x="419" y="695"/>
      <point x="419" y="695" type="curve"/>
      <point x="459" y="659" type="line"/>
      <point x="459" y="659"/>
      <point x="473" y="715"/>
      <point x="521" y="715" type="curve"/>
      <point x="581" y="715"/>
      <point x="602" y="659"/>
      <point x="679" y="659" type="curve" smooth="yes"/>
      <point x="762" y="659"/>
      <point x="785" y="755"/>
      <point x="785" y="755" type="curve"/>
      <point x="745" y="791" type="line"/>
      <point x="745" y="791"/>
      <point x="732" y="735"/>
    </contour>
    <contour>
      <point x="601" y="613" type="move" name="_top"/>
    </contour>
  </outline>
</glyph>
